PathFileType	4	(X/Y/Z)	./resultDataOpenSim/trcMotMarkerGrf/sub09/qtm-15-06.trc
DataRate	CameraRate	NumFrames	NumMarkers	Units	OrigDataRate	OrigDataStartFrame	OrigNumFrames
250.000000	250.000000	13	24	m	250.000000	252	502
Frame#	Time	L.Toe.Tip			R.Toe.Tip			L.Ankle.Lat			R.Ankle.Lat			L.Ankle.Med			R.Ankle.Med			L.Heel			R.Heel			L.Knee.Lat			R.Knee.Lat			L.Knee.Med			R.Knee.Med			L.Thigh.Upper			R.Thigh.Upper			L.ASIS			R.ASIS			V.Sacral			L.Acromium			R.Acromium			C7			L.Elbow			R.Elbow			L.Wrist.Lat			R.Wrist.Lat
		X1	Y1	Z1	X2	Y2	Z2	X3	Y3	Z3	X4	Y4	Z4	X5	Y5	Z5	X6	Y6	Z6	X7	Y7	Z7	X8	Y8	Z8	X9	Y9	Z9	X10	Y10	Z10	X11	Y11	Z11	X12	Y12	Z12	X13	Y13	Z13	X14	Y14	Z14	X15	Y15	Z15	X16	Y16	Z16	X17	Y17	Z17	X18	Y18	Z18	X19	Y19	Z19	X20	Y20	Z20	X21	Y21	Z21	X22	Y22	Z22	X23	Y23	Z23	X24	Y24	Z24

252	1.004	0.085799814	-0.058645437	0.019782196	0.519771	0.1195005	0.11533297	-0.043749413	0.0064905819	-0.048427942	0.37272441	0.12550424	0.12989113	-0.029660644	0.028105758	0.048641702	0.3946761	0.15855255	0.036719342	-0.12507721	-0.0084938652	-0.0090157206	0.31202631	0.094943099	0.073483285	0.095171146	0.40043191	-0.098748824	0.47350164	0.56050609	0.1698512	0.091349778	0.40429313	0.026617547	0.47210788	0.54738424	0.046235811	0.1527827	0.8208002	-0.14916622	0.18196909	0.8353601	0.22221297	0.25530272	0.89772611	-0.09437974	0.25442083	0.91371372	0.14392306	0.093194279	0.97102954	0.026422905	0.31916131	1.3419915	-0.13801582	0.25506315	1.3731376	0.18324486	0.22043194	1.4107285	0.006775295	0.21946108	0.97749588	-0.21418367	0.039348802	1.0889435	0.25547132	0.46415518	0.856225	-0.21140175	0.083171241	0.83067974	0.33738323
253	1.008	0.085955481	-0.058625655	0.019775833	0.53956377	0.11985833	0.11418332	-0.043392763	0.0077475553	-0.048300572	0.39223627	0.12239085	0.12850081	-0.028704175	0.029224603	0.048895548	0.41366788	0.1560025	0.035335486	-0.1244312	-0.0066373047	-0.0084292213	0.3327244	0.090223521	0.071651767	0.096444705	0.40144893	-0.098868038	0.48003225	0.56104026	0.16929574	0.093925883	0.40503831	0.026325243	0.4790306	0.54746814	0.045909822	0.15772344	0.82095891	-0.1491407	0.18843099	0.83582294	0.22244071	0.26084212	0.89744666	-0.094900741	0.26107396	0.91377686	0.1437433	0.099530184	0.97129782	0.025824607	0.32566989	1.3420765	-0.13834936	0.2628756	1.3730545	0.18312882	0.2275381	1.4107759	0.0067890317	0.22715458	0.97702484	-0.21417747	0.046361715	1.0900737	0.25614138	0.47358089	0.85903218	-0.21015986	0.087804809	0.83129769	0.33783957
254	1.012	0.086107251	-0.058604037	0.019789283	0.55920864	0.12030258	0.11303184	-0.04302426	0.0090016769	-0.04812428	0.41172978	0.11940183	0.12700609	-0.02774116	0.030342631	0.049158621	0.43258596	0.15364032	0.033932641	-0.12377055	-0.0047752209	-0.0078423451	0.35343937	0.085773687	0.069704683	0.097795211	0.40246037	-0.098977578	0.4867432	0.56136906	0.16908547	0.096296918	0.40571795	0.026113429	0.48578472	0.54734681	0.045685842	0.16274783	0.82111747	-0.14900334	0.19489034	0.83621793	0.22268573	0.26637996	0.89712516	-0.095412878	0.26774516	0.91379324	0.14357259	0.10584915	0.97145284	0.024930046	0.33219397	1.342118	-0.13868947	0.27065422	1.3729379	0.18300404	0.23464944	1.4107737	0.0068003856	0.23480324	0.97650947	-0.21415278	0.053300435	1.0911887	0.25697444	0.4829173	0.86181252	-0.20890466	0.092571746	0.83189689	0.33829895
255	1.016	0.086259036	-0.058583988	0.019819227	0.57873172	0.12082021	0.11184772	-0.042602965	0.010253112	-0.047903404	0.4311426	0.11651131	0.12541292	-0.026763807	0.031451038	0.049420618	0.45138439	0.15147299	0.032523056	-0.12309299	-0.0029196655	-0.007274054	0.3741551	0.081604212	0.067639093	0.099234807	0.40345461	-0.099077486	0.49319863	0.56138102	0.16912278	0.098608402	0.40633871	0.025967935	0.4923089	0.54702853	0.045602043	0.16780782	0.82128151	-0.14876336	0.20137047	0.83653764	0.22294013	0.27204338	0.89679277	-0.095799477	0.27445119	0.91375551	0.143401	0.11215271	0.9715343	0.024172396	0.33873689	1.3421136	-0.13903483	0.27841084	1.3727772	0.18287295	0.24177426	1.4107191	0.0068151145	0.24241789	0.97596044	-0.2141154	0.060217353	1.0922349	0.25795778	0.49217296	0.86455776	-0.20763461	0.097501259	0.83248558	0.33877623
256	1.02	0.086414665	-0.058568826	0.019857295	0.59814765	0.12137221	0.11056982	-0.042141224	0.011524657	-0.047654257	0.45037575	0.11378025	0.12378267	-0.025763488	0.032543895	0.049654424	0.47002591	0.14950198	0.031112414	-0.12238876	-0.0010753606	-0.0067399529	0.39478546	0.077725298	0.065508991	0.10077568	0.40442289	-0.099168356	0.49924219	0.56108691	0.16920252	0.10103358	0.40690462	0.025826194	0.49865912	0.54652404	0.045598713	0.17285717	0.82142661	-0.14843948	0.20790949	0.83678142	0.22321343	0.27782787	0.89644313	-0.096083474	0.28121063	0.91365617	0.14322511	0.11843628	0.97158903	0.023773538	0.34530335	1.3420575	-0.139381	0.28615272	1.3725647	0.18273529	0.2489157	1.4106139	0.0068217178	0.25000499	0.97537846	-0.21407943	0.067194647	1.0931554	0.25894869	0.50135372	0.86726658	-0.20635155	0.10258222	0.83304997	0.33926308
257	1.024	0.086575255	-0.058561708	0.019895832	0.61743571	0.12192932	0.1091281	-0.041706423	0.012856885	-0.047356189	0.46946332	0.11123523	0.12214747	-0.024736114	0.033624424	0.049842003	0.48849283	0.14772499	0.02968822	-0.1216568	0.00076157129	-0.0062516114	0.41520727	0.074140863	0.063434979	0.10242666	0.40536383	-0.099251539	0.50514817	0.56059147	0.16922922	0.10359283	0.4074247	0.025685341	0.50497895	0.5458518	0.045546366	0.17789944	0.8215219	-0.14799098	0.21453673	0.83695708	0.22351477	0.28368727	0.89605922	-0.096340395	0.28803804	0.9134987	0.14304067	0.12470616	0.97163728	0.02365239	0.35189915	1.3419435	-0.13971907	0.29387669	1.3723015	0.18259234	0.25606958	1.4104619	0.006803483	0.25756581	0.97475965	-0.21405837	0.074296488	1.0939262	0.25980085	0.51045715	0.86994168	-0.20506108	0.10781145	0.8335774	0.33975702
258	1.028	0.086736693	-0.058566043	0.019932669	0.63655525	0.12250901	0.10746564	-0.041381355	0.01428656	-0.046926948	0.48860254	0.10878297	0.12044455	-0.023685437	0.034701264	0.049994998	0.50677337	0.14613727	0.028231513	-0.12090527	0.0025988102	-0.0058175824	0.43535024	0.070850695	0.061540326	0.10419422	0.40628012	-0.099329046	0.51113101	0.55995377	0.16926988	0.10613742	0.40792576	0.025616518	0.51138273	0.5450479	0.045324023	0.18298832	0.82153746	-0.14737572	0.22124999	0.83707088	0.2238309	0.28959196	0.89563476	-0.096619632	0.29493623	0.91329407	0.14283938	0.13100012	0.97167043	0.023714234	0.35853311	1.3417695	-0.14003564	0.30157248	1.3719945	0.18244521	0.26322875	1.410268	0.0067612162	0.26510036	0.97410378	-0.21405174	0.081584194	1.0945485	0.26049539	0.51947263	0.87258574	-0.20377174	0.11318346	0.83406514	0.34025352
259	1.032	0.086891407	-0.058583263	0.019968755	0.65547038	0.12315405	0.10555598	-0.041194288	0.015813731	-0.046293451	0.50786841	0.10637318	0.1186403	-0.022622726	0.035781683	0.050135283	0.52483481	0.14473142	0.026739368	-0.12013569	0.004444985	-0.0054368366	0.45521897	0.067846187	0.059898778	0.10607904	0.40716855	-0.099398936	0.51709165	0.55911768	0.16932873	0.10852978	0.40844159	0.02566811	0.51786126	0.54415319	0.044893073	0.18817179	0.82146734	-0.14665277	0.22803612	0.8371236	0.22413722	0.29553556	0.8951717	-0.096927573	0.30189768	0.91304979	0.14261202	0.13737882	0.97166588	0.023993214	0.36521334	1.3415418	-0.14032634	0.3092341	1.3716484	0.18229104	0.27038286	1.4100378	0.0067178814	0.27260799	0.97341396	-0.2140425	0.089096635	1.0950307	0.26110683	0.5283884	0.87519836	-0.20249264	0.11867747	0.83451976	0.34074608
260	1.036	0.087035395	-0.058606537	0.020001933	0.67414725	0.12389878	0.10339635	-0.041057659	0.017379025	-0.045530041	0.52706787	0.10411463	0.11682887	-0.021567021	0.036862406	0.050262519	0.54261233	0.1434991	0.025228846	-0.11933798	0.0063093124	-0.0050994874	0.47482438	0.065106202	0.05852171	0.10807877	0.40801847	-0.099452481	0.52274809	0.55792369	0.16915777	0.1108148	0.4089973	0.02578301	0.52427664	0.54316024	0.044347537	0.19346305	0.82134156	-0.14598032	0.23490536	0.83711807	0.22442388	0.30152732	0.89466829	-0.097245364	0.30891767	0.91276637	0.14235144	0.14388881	0.97160069	0.024541017	0.37193769	1.3412734	-0.1406075	0.31686643	1.3712629	0.18212674	0.27752135	1.409771	0.0067097307	0.28008506	0.97269441	-0.21401489	0.096736232	1.0954012	0.26168184	0.53719812	0.87777451	-0.20123115	0.12424787	0.83494898	0.34123631
261	1.04	0.087172774	-0.058621253	0.020027358	0.69254505	0.12476977	0.10097614	-0.040812268	0.01889615	-0.044855853	0.54597257	0.10213539	0.11511727	-0.020529995	0.037932814	0.050356452	0.56002679	0.14243314	0.02372518	-0.11850125	0.0081992532	-0.0047963977	0.49412649	0.062605448	0.057346347	0.11019471	0.40882176	-0.099483553	0.52804897	0.55630938	0.16864266	0.11313452	0.40962567	0.025852982	0.53043774	0.54198241	0.043889042	0.19885456	0.82119986	-0.14548895	0.24189107	0.83706265	0.22469838	0.30758052	0.89411435	-0.097564363	0.31599986	0.91244125	0.14205364	0.1505169	0.97146259	0.025298855	0.37869537	1.3409734	-0.14090148	0.32447975	1.3708381	0.18195245	0.28463873	1.4094601	0.0067646844	0.28752366	0.97194719	-0.21396835	0.10425826	1.0957228	0.26220219	0.54590241	0.88030702	-0.19999015	0.1298213	0.83535525	0.34173162
262	1.044	0.087312151	-0.058617084	0.020043374	0.71061156	0.12578578	0.098279811	-0.040360695	0.020323095	-0.044429931	0.56450956	0.10045863	0.1135141	-0.019490056	0.038994611	0.050410612	0.57701973	0.14152453	0.022246899	-0.11762039	0.010117413	-0.0045225564	0.51306237	0.060320139	0.056283267	0.11243519	0.40957626	-0.099497136	0.53335227	0.55444435	0.16810975	0.11553854	0.41035803	0.025833793	0.53621292	0.54050506	0.043699794	0.20430981	0.82105424	-0.14513874	0.249018	0.8369643	0.22496411	0.31369791	0.8934979	-0.097909856	0.32314747	0.91207315	0.14171819	0.15718468	0.97125431	0.026117243	0.38548093	1.3406409	-0.14121449	0.33207849	1.3703756	0.18176726	0.29174174	1.4091028	0.0068613099	0.29491406	0.97117017	-0.21391132	0.11146029	1.0960656	0.26266128	0.55450678	0.88279102	-0.19876644	0.13533264	0.83573545	0.34223547
263	1.048	0.087460281	-0.058595139	0.020051351	0.72828271	0.12694403	0.095322656	-0.039719055	0.021681937	-0.044227548	0.58269393	0.099036484	0.11196733	-0.01840233	0.04006669	0.050443949	0.59356455	0.14075634	0.02079632	-0.11669366	0.012063955	-0.0042743412	0.53159042	0.058222543	0.05528481	0.11481738	0.41028355	-0.099503615	0.53896961	0.55251727	0.16787029	0.11800988	0.41116754	0.025761881	0.54160669	0.53866929	0.043817738	0.20975829	0.82088427	-0.14473204	0.25628111	0.83682308	0.22520883	0.31982682	0.89281301	-0.098318637	0.33035744	0.91166451	0.14134776	0.16382327	0.97098062	0.02685887	0.39229972	1.3402709	-0.14153548	0.33965843	1.3698774	0.18156787	0.29886229	1.4087067	0.0069003751	0.30225198	0.97036273	-0.21385114	0.11832303	1.0964726	0.26313186	0.5630188	0.88522542	-0.19755281	0.14079668	0.83607988	0.34274928
264	1.052	0.087620196	-0.05856249	0.020051553	0.74548938	0.12822291	0.092166076	-0.038952867	0.023017717	-0.044134347	0.60050569	0.097811294	0.11043349	-0.01723735	0.041166377	0.050472905	0.60964215	0.14010316	0.019363254	-0.11572056	0.014042081	-0.0040496233	0.54965912	0.056284973	0.054311801	0.11736067	0.41095119	-0.099510224	0.54483429	0.55053561	0.16784041	0.12059843	0.41196611	0.025678466	0.54676344	0.53651207	0.044103098	0.21515066	0.820665	-0.14410126	0.26365522	0.83663441	0.22541748	0.32583288	0.89206789	-0.098787561	0.33762441	0.91122169	0.14094607	0.17044354	0.9706347	0.027440815	0.39915794	1.3398608	-0.14185147	0.34721502	1.3693458	0.181353	0.30604914	1.4082721	0.006751165	0.30955078	0.96953141	-0.21379015	0.12495384	1.0969535	0.26371129	0.57144388	0.88761058	-0.19634386	0.1463204	0.836372	0.34328024
